<?xml version="1.0" encoding="UTF-8"?><svg id="Layer_1" xmlns="http://www.w3.org/2000/svg" viewBox="0 0 1080 1080"><defs><style>.cls-1{fill:#0f0e0e;stroke:#fff;stroke-miterlimit:10;stroke-width:.87px;}.cls-2{fill:#29abe2;}</style></defs><circle class="cls-2" cx="547.37" cy="544.34" r="435.63"/><path class="cls-1" d="m359.1,409.39l-10.84,59.64-106.64,83.74,78.92,74.1-10.84,59.64-102.42-102.42,13.25-72.3,138.57-102.42Z"/><path class="cls-1" d="m348.26,773.28l80.73-457.87h57.84l-72.3,408.47h235.65l-8.43,49.4h-293.49Z"/><path class="cls-1" d="m578.91,315.41h114.01l25.74,31.53-31,176.53-36.78,31.53h-63.57l-28.37,150.78h-50.44l70.4-390.36Zm62,187.04l23.64-134.5-8.41-10.51h-34.15l-27.32,155.52h34.15l12.08-10.51Z"/><path class="cls-1" d="m835.03,543.14l-78.92-74.1,10.84-59.64,102.42,102.42-13.25,72.3-138.57,102.42,10.84-59.64,106.64-83.74Z"/></svg>